# xmcd
#
# Track frame offsets:
#	225
#	15537
#	30960
#	48992
#	63357
#	75938
#	90221
#	100449
#	113920
#	126700
#	139696
#	151729
#
# Disc length: 2135 seconds
#
# Revision: 1
# Processed by: cddbd v1.5.1PL2 Copyright (c) Steve Scherf et al.
# Submitted via: audiograbber 1.83.01
#
DISCID=8908540c
DTITLE=Marc Pircher  - Weihnachten mit Marc Pircher
DYEAR=2001
DGENRE=Schlager
TTITLE0=Andacht in den Bergen
TTITLE1=Weihnacht in der Heimat
TTITLE2=Weihnacht ohne di
TTITLE3=Weihnacht ist für mich die schönste Zeit
TTITLE4=Weihnacht
TTITLE5=Weihnachten bin ich bei dir
TTITLE6=Bald ist Weihnacht
TTITLE7=Unterm Christbaum des Packerl
TTITLE8=Heiligabend daheim
TTITLE9=Schöne Weihnachtszeit
TTITLE10=Wofferl, hast schon aussigschaut
TTITLE11=Lippal steh auf
EXTD=
EXTT0=
EXTT1=
EXTT2=
EXTT3=
EXTT4=
EXTT5=
EXTT6=
EXTT7=
EXTT8=
EXTT9=
EXTT10=
EXTT11=
PLAYORDER=
